<svg width="400" height="593" viewBox="0 0 400 593" fill="none" xmlns="http://www.w3.org/2000/svg">
<rect width="400" height="593" rx="16" fill="#1EAB9A"/>
<rect width="400" height="593" rx="16" stroke="#151515"/>
<mask id="mask0_1_497" style="mask-type:alpha" maskUnits="userSpaceOnUse" x="0" y="0" width="400" height="593">
<rect width="400" height="593" rx="16" fill="#1EAB9A"/>
</mask>
<g mask="url(#mask0_1_497)">
<path d="M101 286L-19 286L-19 -1.04907e-05L101 0L101 286Z" fill="#151515"/>
<path d="M101 286L-19 286L-19 -1.04907e-05L101 0L101 286Z" stroke="#151515"/>
<path d="M251 195L251 165L281 165C281 181.569 267.569 195 251 195Z" fill="#FBF0CD"/>
<path d="M457 135C457 151.569 443.569 165 427 165L250 165C233.431 165 220 151.569 220 135L220 75C220 58.4315 233.431 45 250 45L427 45C443.569 45 457 58.4315 457 75L457 135Z" fill="#FBF0CD"/>
<circle cx="41" cy="283" r="60" fill="#FF97BC"/>
<circle cx="41" cy="283" r="60" stroke="#151515"/>
<circle cx="71" cy="431" r="2" fill="white"/>
<circle cx="11" cy="431" r="2" fill="white"/>
<circle cx="41" cy="431" r="2" fill="white"/>
<circle cx="71" cy="491" r="2" fill="white"/>
<circle cx="11" cy="491" r="2" fill="white"/>
<circle cx="41" cy="491" r="2" fill="white"/>
<circle cx="71" cy="461" r="2" fill="white"/>
<circle cx="11" cy="461" r="2" fill="white"/>
<circle cx="41" cy="461" r="2" fill="white"/>
<circle cx="71" cy="521" r="2" fill="white"/>
<circle cx="11" cy="521" r="2" fill="white"/>
<circle cx="41" cy="521" r="2" fill="white"/>
<path d="M311 522L191 522L191 313L281 313C297.569 313 311 326.431 311 343L311 522Z" fill="#89D9BB"/>
<path d="M311 522L191 522L191 313L281 313C297.569 313 311 326.431 311 343L311 522Z" stroke="#151515"/>
<path d="M311 522L191 522L191 733L281 733C297.569 733 311 719.569 311 703L311 522Z" fill="#151515"/>
<path d="M311 522L191 522L191 733L281 733C297.569 733 311 719.569 311 703L311 522Z" stroke="#151515"/>
<path d="M221 343L221 313L251 313C251 329.569 237.569 343 221 343Z" fill="white"/>
<path d="M221 343L221 313L251 313C251 329.569 237.569 343 221 343Z" stroke="#151515"/>
<path d="M161 223H221V343H191C174.431 343 161 329.569 161 313V223Z" fill="white"/>
<path d="M161 223H221V343H191C174.431 343 161 329.569 161 313V223Z" stroke="#151515"/>
<path d="M221 193L221 223L161 223C161 206.431 174.431 193 191 193L221 193Z" fill="#151515"/>
<path d="M221 193L221 223L161 223C161 206.431 174.431 193 191 193L221 193Z" stroke="#151515"/>
<circle cx="191" cy="257" r="2" fill="#151515"/>
<circle cx="131" cy="257" r="2" fill="#151515"/>
<path d="M370 222L370 372C370 388.569 356.569 402 340 402L310 402L310 252C310 235.432 323.431 222 340 222L370 222Z" fill="white"/>
<path d="M370 222L370 372C370 388.569 356.569 402 340 402L310 402L310 252C310 235.432 323.431 222 340 222L370 222Z" stroke="#151515"/>
<path d="M131 523L131 373C131 356.431 144.431 343 161 343L191 343L191 493C191 509.569 177.569 523 161 523L131 523Z" fill="white"/>
<path d="M131 523L131 373C131 356.431 144.431 343 161 343L191 343L191 493C191 509.569 177.569 523 161 523L131 523Z" stroke="#151515"/>
<path d="M131 463L131 373C131 356.431 144.431 343 161 343L191 343L191 463L131 463Z" fill="#89D9BB"/>
<path d="M131 463L131 373C131 356.431 144.431 343 161 343L191 343L191 463L131 463Z" stroke="#151515"/>
<path d="M370 282L370 372C370 388.569 356.569 402 340 402L310 402L310 282L370 282Z" fill="#89D9BB"/>
<path d="M370 282L370 372C370 388.569 356.569 402 340 402L310 402L310 282L370 282Z" stroke="#151515"/>
<path d="M310 252L310 282L280 282C280 265.431 293.431 252 310 252Z" fill="white"/>
<path d="M310 252L310 282L280 282C280 265.431 293.431 252 310 252Z" stroke="#151515"/>
<circle cx="341" cy="90" r="2" fill="#151515"/>
<circle cx="371" cy="90" r="2" fill="#151515"/>
<circle cx="281" cy="90" r="2" fill="#151515"/>
<circle cx="311" cy="90" r="2" fill="#151515"/>
<circle cx="281" cy="120" r="2" fill="#151515"/>
<circle cx="311" cy="120" r="2" fill="#151515"/>
</g>
</svg>
